<svg width="260" height="34" viewBox="0 0 260 34" fill="none" xmlns="http://www.w3.org/2000/svg">
<path d="M59.1839 30.3979C54.4935 33.8546 49.6296 34.9977 44.2337 31.8208C40.8164 29.8106 37.2296 28.096 33.7492 26.1883C33.0397 25.7981 32.5352 25.8139 31.8336 26.2001C28.1916 28.2024 24.5102 30.1338 20.8485 32.1006C16.9346 34.2015 13.0403 34.4301 9.13427 32.073C8.1883 31.5015 7.19109 31.0088 6.24118 30.3545C11.649 30.0826 15.693 26.6771 20.2573 24.5526C22.2635 23.6184 24.2146 22.5227 26.0592 21.3048C28.6252 19.6138 28.4872 16.031 25.7833 14.545C20.1548 11.4549 14.4829 8.44352 8.77559 5.50313C7.33299 4.75818 5.68936 4.40344 4.19946 3.89104C7.75867 0.166291 13.1113 -0.740262 17.7544 1.68773C22.4409 4.13936 27.1195 6.61071 31.8336 9.00322C32.3499 9.2673 33.225 9.29883 33.7295 9.04263C38.4869 6.62252 43.1892 4.10389 47.923 1.63648C51.088 -0.0150206 54.261 -0.405231 57.4733 1.58919C58.778 2.40114 60.1851 3.05149 61.3005 3.64666C58.6676 4.82124 55.94 5.92093 53.3229 7.23741C49.0621 9.37766 44.8367 11.5968 40.6705 13.9183C39.6615 14.482 38.6564 15.4358 38.1598 16.4567C37.1468 18.5378 37.6552 20.2721 39.7206 21.4191C44.7106 24.19 49.7794 26.8308 54.8916 29.377C56.1647 30.0156 57.7177 30.0668 59.1839 30.3979Z" fill="white"/>
<path d="M14.3528 26.3224C11.5149 28.1355 8.72825 29.243 5.51984 29.1051C2.52821 28.975 0.0805081 26.6968 0.0410927 23.6894C-0.021972 18.9123 -0.0101461 14.1351 0.0608016 9.36192C0.100217 6.68956 2.50455 4.86857 5.10991 5.39673C5.24787 5.42432 5.38976 5.44404 5.52771 5.47557C8.03453 6.08651 8.03454 6.08651 8.03848 8.62092C8.04242 12.3102 8.09366 15.9995 8.03059 19.6888C7.99118 21.9394 8.96474 23.4687 10.9 24.4856C11.98 25.0493 13.0521 25.6287 14.3528 26.3224Z" fill="white"/>
<path d="M51.293 26.3302C52.5424 25.6641 53.6618 25.0689 54.7733 24.4698C56.6337 23.4647 57.6152 21.9748 57.5876 19.7873C57.5364 15.6802 57.6113 11.5731 57.5482 7.466C57.5364 6.57915 57.8044 6.14559 58.6203 5.96822C59.6727 5.73961 60.729 5.29027 61.7735 5.31786C63.8744 5.37305 65.5259 7.2571 65.5495 9.52743C65.5968 14.2021 65.6205 18.8728 65.5495 23.5475C65.4983 26.7598 63.1334 28.9356 59.9052 29.0696C56.7402 29.2036 54.0323 28.033 51.293 26.3302Z" fill="white"/>
<path d="M97.3398 16V16.9375C97.3398 18.2266 97.1719 19.3828 96.8359 20.4062C96.5 21.4297 96.0195 22.3008 95.3945 23.0195C94.7773 23.7383 94.0352 24.2891 93.168 24.6719C92.3008 25.0469 91.3398 25.2344 90.2852 25.2344C89.2383 25.2344 88.2812 25.0469 87.4141 24.6719C86.5547 24.2891 85.8086 23.7383 85.1758 23.0195C84.543 22.3008 84.0508 21.4297 83.6992 20.4062C83.3555 19.3828 83.1836 18.2266 83.1836 16.9375V16C83.1836 14.7109 83.3555 13.5586 83.6992 12.543C84.043 11.5195 84.5273 10.6484 85.1523 9.92969C85.7852 9.20312 86.5312 8.65234 87.3906 8.27734C88.2578 7.89453 89.2148 7.70312 90.2617 7.70312C91.3164 7.70312 92.2773 7.89453 93.1445 8.27734C94.0117 8.65234 94.7578 9.20312 95.3828 9.92969C96.0078 10.6484 96.4883 11.5195 96.8242 12.543C97.168 13.5586 97.3398 14.7109 97.3398 16ZM94.3984 16.9375V15.9766C94.3984 15.0234 94.3047 14.1836 94.1172 13.457C93.9375 12.7227 93.668 12.1094 93.3086 11.6172C92.957 11.1172 92.5234 10.7422 92.0078 10.4922C91.4922 10.2344 90.9102 10.1055 90.2617 10.1055C89.6133 10.1055 89.0352 10.2344 88.5273 10.4922C88.0195 10.7422 87.5859 11.1172 87.2266 11.6172C86.875 12.1094 86.6055 12.7227 86.418 13.457C86.2305 14.1836 86.1367 15.0234 86.1367 15.9766V16.9375C86.1367 17.8906 86.2305 18.7344 86.418 19.4688C86.6055 20.2031 86.8789 20.8242 87.2383 21.332C87.6055 21.832 88.043 22.2109 88.5508 22.4688C89.0586 22.7188 89.6367 22.8438 90.2852 22.8438C90.9414 22.8438 91.5234 22.7188 92.0312 22.4688C92.5391 22.2109 92.9688 21.832 93.3203 21.332C93.6719 20.8242 93.9375 20.2031 94.1172 19.4688C94.3047 18.7344 94.3984 17.8906 94.3984 16.9375ZM106.762 18.6367H102.32V16.3047H106.762C107.535 16.3047 108.16 16.1797 108.637 15.9297C109.113 15.6797 109.461 15.3359 109.68 14.8984C109.906 14.4531 110.02 13.9453 110.02 13.375C110.02 12.8359 109.906 12.332 109.68 11.8633C109.461 11.3867 109.113 11.0039 108.637 10.7148C108.16 10.4258 107.535 10.2812 106.762 10.2812H103.223V25H100.281V7.9375H106.762C108.082 7.9375 109.203 8.17188 110.125 8.64062C111.055 9.10156 111.762 9.74219 112.246 10.5625C112.73 11.375 112.973 12.3047 112.973 13.3516C112.973 14.4531 112.73 15.3984 112.246 16.1875C111.762 16.9766 111.055 17.582 110.125 18.0039C109.203 18.4258 108.082 18.6367 106.762 18.6367ZM125.184 7.9375H128.113V19.3398C128.113 20.6367 127.832 21.7227 127.27 22.5977C126.707 23.4727 125.941 24.1328 124.973 24.5781C124.012 25.0156 122.938 25.2344 121.75 25.2344C120.523 25.2344 119.43 25.0156 118.469 24.5781C117.508 24.1328 116.75 23.4727 116.195 22.5977C115.648 21.7227 115.375 20.6367 115.375 19.3398V7.9375H118.305V19.3398C118.305 20.1602 118.445 20.8359 118.727 21.3672C119.008 21.8906 119.406 22.2773 119.922 22.5273C120.438 22.7773 121.047 22.9023 121.75 22.9023C122.453 22.9023 123.059 22.7773 123.566 22.5273C124.082 22.2773 124.48 21.8906 124.762 21.3672C125.043 20.8359 125.184 20.1602 125.184 19.3398V7.9375ZM142 22.668V25H133.434V22.668H142ZM134.254 7.9375V25H131.312V7.9375H134.254ZM155.441 22.668V25H146.383V22.668H155.441ZM147.215 7.9375V25H144.273V7.9375H147.215ZM154.258 15.0625V17.3594H146.383V15.0625H154.258ZM155.383 7.9375V10.2812H146.383V7.9375H155.383ZM171.379 7.9375V25H168.438L160.785 12.7773V25H157.844V7.9375H160.785L168.461 20.1836V7.9375H171.379ZM181.551 7.9375V25H178.633V7.9375H181.551ZM186.906 7.9375V10.2812H173.324V7.9375H186.906ZM199.527 25H195.883L195.906 22.668H199.527C200.582 22.668 201.465 22.4375 202.176 21.9766C202.895 21.5156 203.434 20.8555 203.793 19.9961C204.16 19.1367 204.344 18.1133 204.344 16.9258V16C204.344 15.0781 204.238 14.2617 204.027 13.5508C203.824 12.8398 203.52 12.2422 203.113 11.7578C202.715 11.2734 202.223 10.9062 201.637 10.6562C201.059 10.4062 200.391 10.2812 199.633 10.2812H195.812V7.9375H199.633C200.766 7.9375 201.801 8.12891 202.738 8.51172C203.676 8.88672 204.484 9.42969 205.164 10.1406C205.852 10.8516 206.379 11.7031 206.746 12.6953C207.113 13.6875 207.297 14.7969 207.297 16.0234V16.9258C207.297 18.1523 207.113 19.2617 206.746 20.2539C206.379 21.2461 205.852 22.0977 205.164 22.8086C204.477 23.5117 203.656 24.0547 202.703 24.4375C201.758 24.8125 200.699 25 199.527 25ZM197.512 7.9375V25H194.57V7.9375H197.512ZM210.25 7.9375H216.285C217.582 7.9375 218.688 8.13281 219.602 8.52344C220.516 8.91406 221.215 9.49219 221.699 10.2578C222.191 11.0156 222.438 11.9531 222.438 13.0703C222.438 13.9219 222.281 14.6719 221.969 15.3203C221.656 15.9688 221.215 16.5156 220.645 16.9609C220.074 17.3984 219.395 17.7383 218.605 17.9805L217.715 18.4141H212.289L212.266 16.082H216.332C217.035 16.082 217.621 15.957 218.09 15.707C218.559 15.457 218.91 15.1172 219.145 14.6875C219.387 14.25 219.508 13.7578 219.508 13.2109C219.508 12.6172 219.391 12.1016 219.156 11.6641C218.93 11.2188 218.578 10.8789 218.102 10.6445C217.625 10.4023 217.02 10.2812 216.285 10.2812H213.191V25H210.25V7.9375ZM219.988 25L215.98 17.3359L219.062 17.3242L223.129 24.8477V25H219.988ZM228.508 7.9375V25H225.566V7.9375H228.508ZM238.012 21.8828L242.5 7.9375H245.746L239.629 25H237.438L238.012 21.8828ZM233.863 7.9375L238.316 21.8828L238.926 25H236.723L230.629 7.9375H233.863ZM258.824 22.668V25H249.766V22.668H258.824ZM250.598 7.9375V25H247.656V7.9375H250.598ZM257.641 15.0625V17.3594H249.766V15.0625H257.641ZM258.766 7.9375V10.2812H249.766V7.9375H258.766Z" fill="white"/>
</svg>
