<svg width="32" height="33" viewBox="0 0 32 33" fill="none" xmlns="http://www.w3.org/2000/svg">
<path d="M13.1387 13.8053L12.6667 13.3333M19.3387 20.0053L18.8667 19.5333M12.6667 20L19.3333 13.3333M12.9507 5.51996C13.7253 4.85996 14.1133 4.52929 14.5187 4.33596C14.9813 4.11523 15.4874 4.00067 16 4.00067C16.5126 4.00067 17.0187 4.11523 17.4813 4.33596C17.8867 4.52929 18.2747 4.85996 19.0493 5.51996C19.848 6.19996 20.6587 6.54396 21.7253 6.62796C22.74 6.70929 23.248 6.75062 23.672 6.89996C24.6507 7.24662 25.4213 8.01596 25.7667 8.99596C25.916 9.41862 25.9573 9.92662 26.0387 10.9426C26.1227 12.0093 26.4653 12.8186 27.1453 13.6173C27.8067 14.392 28.1373 14.78 28.3307 15.1853C28.7787 16.1226 28.7787 17.212 28.3307 18.148C28.1373 18.5533 27.8067 18.9413 27.1467 19.716C26.4859 20.4574 26.0954 21.4005 26.0387 22.392C25.9573 23.4066 25.916 23.9146 25.7667 24.3386C25.5955 24.8219 25.3184 25.2608 24.9558 25.6232C24.5931 25.9856 24.154 26.2624 23.6707 26.4333C23.248 26.5826 22.74 26.624 21.724 26.7053C20.6573 26.7893 19.848 27.132 19.0493 27.812C18.2747 28.4733 17.8867 28.804 17.4813 28.9973C17.0187 29.218 16.5126 29.3326 16 29.3326C15.4874 29.3326 14.9813 29.218 14.5187 28.9973C14.1133 28.804 13.7253 28.4733 12.9507 27.8133C12.2093 27.1525 11.2661 26.762 10.2747 26.7053C9.25999 26.624 8.75199 26.5826 8.32799 26.4333C7.84472 26.2621 7.40582 25.985 7.0434 25.6224C6.68098 25.2597 6.40421 24.8207 6.23333 24.3373C6.08399 23.9146 6.04266 23.4066 5.96133 22.3906C5.90465 21.3998 5.51464 20.4572 4.85466 19.716C4.19333 18.9413 3.86266 18.5533 3.66799 18.148C3.44747 17.6852 3.33314 17.1791 3.33337 16.6665C3.33361 16.1539 3.44839 15.6478 3.66933 15.1853C3.86266 14.78 4.19333 14.392 4.85333 13.6173C5.54666 12.8026 5.87866 11.9866 5.96133 10.9413C6.04266 9.92662 6.08399 9.41862 6.23333 8.99462C6.40452 8.51135 6.68157 8.07245 7.04422 7.71003C7.40687 7.34762 7.84594 7.07084 8.32933 6.89996C8.75199 6.75062 9.25999 6.70929 10.276 6.62796C11.2668 6.57128 12.2094 6.17994 12.9507 5.51996Z" stroke="#1A1A1A" stroke-width="2" stroke-linecap="round" stroke-linejoin="round"/>
</svg>
