<svg width="33" height="33" viewBox="0 0 33 33" fill="none" xmlns="http://www.w3.org/2000/svg">
<path d="M7.16675 2.83374H21.8334C22.8943 2.83374 23.9117 3.25517 24.6618 4.00531C25.412 4.75546 25.8334 5.77287 25.8334 6.83374V25.5004C25.8334 25.854 25.6929 26.1932 25.4429 26.4432C25.1928 26.6933 24.8537 26.8337 24.5001 26.8337H20.5001" stroke="white" stroke-width="2.66667" stroke-linecap="round" stroke-linejoin="round"/>
<path d="M16.5001 16.1671V18.8337M7.16675 2.83374L17.2841 4.85774C18.1907 5.03896 19.0066 5.52868 19.593 6.2436C20.1793 6.95852 20.4998 7.85448 20.5001 8.77907V27.8737C20.5 28.0709 20.4561 28.2656 20.3717 28.4438C20.2872 28.622 20.1643 28.7793 20.0118 28.9043C19.8593 29.0292 19.6809 29.1188 19.4896 29.1666C19.2983 29.2143 19.0988 29.2191 18.9054 29.1804L9.31075 27.2631C8.70601 27.1422 8.16185 26.8155 7.77093 26.3385C7.38002 25.8615 7.1665 25.2638 7.16675 24.6471V2.83374Z" stroke="white" stroke-width="2.66667" stroke-linecap="round" stroke-linejoin="round"/>
</svg>
