<svg width="34" height="34" viewBox="0 0 34 34" fill="none" xmlns="http://www.w3.org/2000/svg">
<path d="M14.7536 13.6379C14.3116 13.9334 13.9321 14.3131 13.6368 14.7553C13.3415 15.1974 13.1362 15.6934 13.0326 16.2149C12.8234 17.2681 13.0412 18.3613 13.6379 19.254C14.2347 20.1467 15.1617 20.7657 16.2149 20.975C17.2681 21.1842 18.3613 20.9664 19.254 20.3696C20.1467 19.7728 20.7657 18.8459 20.975 17.7927C21.1842 16.7394 20.9664 15.6462 20.3696 14.7536C19.7728 13.8609 18.8459 13.2419 17.7927 13.0326C16.7394 12.8234 15.6462 13.0412 14.7536 13.6379ZM25.5531 8.44688C25.1585 8.05223 24.6804 7.74107 24.1567 7.53616C22.783 6.99732 19.7853 7.02009 17.85 7.04286C17.5388 7.04286 17.2504 7.05045 17 7.05045C16.7496 7.05045 16.4536 7.05045 16.1348 7.04286C14.1996 7.02009 11.217 6.98973 9.8433 7.53616C9.31964 7.74107 8.84911 8.05223 8.44688 8.44688C8.04464 8.84152 7.74107 9.31964 7.53616 9.8433C6.99732 11.217 7.02768 14.2223 7.04286 16.1576C7.04286 16.4688 7.05045 16.7571 7.05045 17C7.05045 17.2429 7.05045 17.5312 7.04286 17.8424C7.02768 19.7777 6.99732 22.783 7.53616 24.1567C7.74107 24.6804 8.05223 25.1509 8.44688 25.5531C8.84152 25.9554 9.31964 26.2589 9.8433 26.4638C11.217 27.0027 14.2147 26.9799 16.15 26.9571C16.4612 26.9571 16.7496 26.9496 17 26.9496C17.2504 26.9496 17.5464 26.9496 17.8652 26.9571C19.8004 26.9799 22.783 27.0103 24.1567 26.4638C24.6804 26.2589 25.1509 25.9478 25.5531 25.5531C25.9554 25.1585 26.2589 24.6804 26.4638 24.1567C27.0103 22.7906 26.9799 19.8004 26.9571 17.8576C26.9571 17.5388 26.9496 17.2429 26.9496 16.9924C26.9496 16.742 26.9496 16.4536 26.9571 16.1272C26.9799 14.192 27.0103 11.2018 26.4638 9.82812C26.2589 9.30446 25.9478 8.83393 25.5531 8.4317V8.44688ZM20.4607 11.8241C21.8334 12.7419 22.7853 14.1675 23.107 15.7872C23.4287 17.4069 23.0937 19.088 22.1759 20.4607C21.2581 21.8334 19.8325 22.7853 18.2128 23.107C16.5931 23.4287 14.912 23.0937 13.5393 22.1759C12.8596 21.7219 12.2759 21.1385 11.8217 20.459C11.3675 19.7795 11.0515 19.0171 10.8919 18.2155C10.7323 17.4139 10.7321 16.5886 10.8914 15.787C11.0507 14.9853 11.3663 14.2228 11.8203 13.5431C12.2743 12.8634 12.8577 12.2797 13.5372 11.8255C14.2167 11.3713 14.9791 11.0553 15.7807 10.8957C16.5823 10.7361 17.4076 10.7359 18.2093 10.8952C19.0109 11.0545 19.7734 11.3701 20.4531 11.8241H20.4607ZM22.6768 11.7254C22.4415 11.5661 22.2518 11.3384 22.1379 11.0728C22.0241 10.8071 22.0013 10.5188 22.0545 10.2304C22.1076 9.94197 22.2518 9.69152 22.4491 9.48661C22.6464 9.2817 22.9121 9.14509 23.1929 9.09196C23.4737 9.03884 23.7696 9.06161 24.0353 9.17545C24.3009 9.28929 24.5286 9.47143 24.6879 9.7067C24.8473 9.94196 24.9308 10.2228 24.9308 10.5112C24.9308 10.7009 24.8929 10.8906 24.8246 11.0652C24.7563 11.2397 24.6424 11.3991 24.5134 11.5357C24.3844 11.6723 24.2174 11.7786 24.0429 11.8545C23.8683 11.9304 23.6786 11.9683 23.4888 11.9683C23.2004 11.9683 22.9196 11.8848 22.6844 11.7254H22.6768ZM34 4.85714C34 2.17813 31.8219 0 29.1429 0H4.85714C2.17813 0 0 2.17813 0 4.85714V29.1429C0 31.8219 2.17813 34 4.85714 34H29.1429C31.8219 34 34 31.8219 34 29.1429V4.85714ZM27.0938 27.0938C25.6746 28.5129 23.9518 28.9607 22.0089 29.0594C20.0054 29.1732 13.9946 29.1732 11.9911 29.0594C10.0482 28.9607 8.32545 28.5129 6.90625 27.0938C5.48705 25.6746 5.03929 23.9518 4.94821 22.0089C4.83437 20.0054 4.83437 13.9946 4.94821 11.9911C5.04688 10.0482 5.48705 8.32545 6.90625 6.90625C8.32545 5.48705 10.0558 5.03929 11.9911 4.94821C13.9946 4.83437 20.0054 4.83437 22.0089 4.94821C23.9518 5.04688 25.6746 5.48705 27.0938 6.90625C28.5129 8.32545 28.9607 10.0482 29.0518 11.9911C29.1656 13.9871 29.1656 19.9902 29.0518 22.0013C28.9531 23.9442 28.5129 25.667 27.0938 27.0862V27.0938Z" fill="#999999"/>
</svg>
