<svg width="33" height="33" viewBox="0 0 33 33" fill="none" xmlns="http://www.w3.org/2000/svg">
<g clip-path="url(#clip0_98_25)">
<path d="M9.83333 5.50049C6.9 5.50049 4.5 7.90049 4.5 10.8338C4.5 13.7672 6.9 16.1672 9.83333 16.1672C12.7667 16.1672 15.1667 13.7672 15.1667 10.8338C15.1667 7.90049 12.7667 5.50049 9.83333 5.50049ZM9.83333 13.5005C8.36667 13.5005 7.16667 12.3005 7.16667 10.8338C7.16667 9.36716 8.36667 8.16716 9.83333 8.16716C11.3 8.16716 12.5 9.36716 12.5 10.8338C12.5 12.3005 11.3 13.5005 9.83333 13.5005ZM9.83333 18.8338C4.63333 18.8338 0.5 21.2338 0.5 24.1672V26.8338H15.1667V24.1672H3.16667C3.16667 23.3672 5.56667 21.5005 9.83333 21.5005C12.2333 21.5005 14.1 22.1672 15.1667 22.8338V19.9005C13.7 19.2338 11.8333 18.8338 9.83333 18.8338ZM29.8333 5.50049H20.5C19.0333 5.50049 17.8333 6.70049 17.8333 8.16716V24.1672C17.8333 25.6338 19.0333 26.8338 20.5 26.8338H29.8333C31.3 26.8338 32.5 25.6338 32.5 24.1672V8.16716C32.5 6.70049 31.3 5.50049 29.8333 5.50049ZM21.8333 24.1672H20.5V8.16716H21.8333V24.1672ZM29.8333 24.1672H24.5V8.16716H29.8333V24.1672Z" fill="white"/>
</g>
<defs>
<clipPath id="clip0_98_25">
<rect width="32" height="32" fill="white" transform="translate(0.5 0.166992)"/>
</clipPath>
</defs>
</svg>
