<svg width="34" height="36" viewBox="0 0 34 36" fill="none" xmlns="http://www.w3.org/2000/svg">
<path d="M17.0001 2.21049L17.0001 23.3001M17.0001 30.7442L17.0001 33.7894M17.0001 30.7442C16.0132 30.7442 15.0667 30.3521 14.3688 29.6543C13.671 28.9564 13.2789 28.0099 13.2789 27.023C13.2789 26.0361 13.671 25.0896 14.3688 24.3917C15.0667 23.6939 16.0132 23.3018 17.0001 23.3018C17.987 23.3018 18.9335 23.6939 19.6314 24.3917C20.3293 25.0896 20.7213 26.0361 20.7213 27.023C20.7213 28.0099 20.3293 28.9564 19.6314 29.6543C18.9335 30.3521 17.987 30.7442 17.0001 30.7442ZM28.2781 2.21049L28.2781 12.0221M28.2781 12.0221C29.2652 12.0221 30.2128 12.4151 30.9108 13.1132C31.6088 13.8112 32.001 14.7579 32.001 15.745C32.001 16.732 31.6072 17.6785 30.9094 18.3763C30.2115 19.0742 29.265 19.4662 28.2781 19.4662M28.2781 12.0221C27.2909 12.0221 26.3451 12.4151 25.647 13.1132C24.949 13.8112 24.5569 14.7579 24.5569 15.745C24.5569 16.732 24.9489 17.6785 25.6468 18.3763C26.3447 19.0742 27.2912 19.4662 28.2781 19.4662M28.2781 19.4662L28.2781 33.7894M5.72217 2.21049L5.72217 7.51063M5.72217 14.9547L5.72217 33.7894M5.72217 14.9547C4.73525 14.9547 3.78875 14.5627 3.09089 13.8648C2.39303 13.167 2.00098 12.2205 2.00098 11.2335C2.00098 10.7449 2.09723 10.261 2.28423 9.80949C2.47124 9.35801 2.74534 8.94779 3.09089 8.60225C3.43643 8.2567 3.84665 7.9826 4.29813 7.79559C4.74961 7.60859 5.2335 7.51234 5.72217 7.51234C6.21084 7.51234 6.69473 7.60859 7.14621 7.79559C7.59769 7.9826 8.00791 8.2567 8.35345 8.60225C8.699 8.94779 8.9731 9.35801 9.16011 9.80949C9.34711 10.261 9.44336 10.7449 9.44336 11.2335C9.44336 12.2205 9.05131 13.167 8.35345 13.8648C7.65559 14.5627 6.70909 14.9547 5.72217 14.9547Z" stroke="white" stroke-width="2.56046" stroke-miterlimit="10" stroke-linecap="round"/>
</svg>
