<svg width="30" height="31" viewBox="0 0 30 31" fill="none" xmlns="http://www.w3.org/2000/svg">
<path d="M17.8628 29.817H19.6071C21.1767 29.817 22.5326 29.7168 23.4246 29.5031C25.1571 29.0761 26.2371 27.8708 26.2371 26.3263C26.2358 26.0199 26.1893 25.7153 26.0989 25.4225C26.9651 24.7947 27.4542 23.8277 27.4542 22.7858C27.4542 22.2715 27.3541 21.769 27.166 21.3543C27.7435 20.7645 28.0949 19.8977 28.0949 18.9811C28.0949 18.3913 27.945 17.7634 27.6808 17.3113C28.0451 16.797 28.246 16.1059 28.246 15.3399C28.246 13.4692 26.7889 11.9879 24.9187 11.9879H20.1723C19.8712 11.9879 19.6703 11.8497 19.6703 11.5984C19.6703 10.2302 21.8046 7.05344 21.8046 4.50451C21.8046 2.77201 20.5992 1.5163 18.9294 1.5163C17.6989 1.5163 16.8701 2.15648 16.0542 3.7138C14.5221 6.65165 12.7141 9.25094 9.72584 12.8917H7.34031C4.23906 12.8917 1.75281 16.3952 1.75281 20.6767C1.75281 24.9077 4.49031 28.4231 7.81709 28.4231H11.9608C13.6183 29.2899 15.6273 29.817 17.8623 29.817M19.6194 27.9211L17.8746 27.8959C12.6139 27.8584 9.04816 24.8825 9.04816 20.6134C9.04816 17.9017 9.65084 16.1686 11.3582 13.8838C13.2546 11.36 15.8657 8.3338 17.7492 4.58005C18.2512 3.57558 18.5153 3.41219 18.9294 3.41219C19.5444 3.41219 19.9087 3.80165 19.9087 4.50505C19.9087 6.53862 17.7744 9.62755 17.7744 11.5984C17.7744 13.0175 18.9546 13.8838 20.4487 13.8838H24.9187C25.7474 13.8838 26.3501 14.5117 26.3501 15.3404C26.3501 15.9431 26.1616 16.332 25.6719 16.8093C25.5466 16.9347 25.4833 17.0606 25.4833 17.1983C25.4833 17.299 25.5208 17.412 25.6092 17.5122C26.0233 18.1149 26.1991 18.4915 26.1991 18.9811C26.1991 19.5843 25.9103 20.0863 25.3451 20.5256C25.1067 20.7013 24.9808 20.9022 24.9808 21.1159C24.9808 21.1909 24.9937 21.2793 25.0441 21.3672C25.4083 22.0577 25.5583 22.3336 25.5583 22.7858C25.5583 23.464 25.1319 23.9788 24.2282 24.4433C24.0396 24.5434 23.9266 24.6945 23.9266 24.8825C23.9266 24.9575 23.9517 25.0331 23.9892 25.1209C24.3032 25.887 24.3407 26.0124 24.3407 26.3263C24.3407 26.9418 23.8891 27.4315 22.9725 27.6575C22.2316 27.8456 21.0508 27.9334 19.6194 27.9211ZM7.81816 26.5272C5.59549 26.5272 3.64924 23.8529 3.64924 20.6767C3.64924 17.4372 5.39459 14.7875 7.34084 14.7875H8.49584C7.55406 16.5458 7.15227 18.3913 7.15227 20.5759C7.15227 22.9363 8.0062 24.9704 9.52549 26.5277L7.81816 26.5272Z" fill="#1A1A1A"/>
</svg>
