<svg width="30" height="31" viewBox="0 0 30 31" fill="none" xmlns="http://www.w3.org/2000/svg">
<g clip-path="url(#clip0_112_57)">
<path d="M8 15.6666L14 20.6666L22 10.6666M15 29.6666C13.1615 29.6666 11.341 29.3045 9.64243 28.6009C7.94387 27.8974 6.40053 26.8661 5.1005 25.5661C3.80048 24.2661 2.76925 22.7228 2.06569 21.0242C1.36212 19.3256 1 17.5051 1 15.6666C1 13.8281 1.36212 12.0076 2.06569 10.3091C2.76925 8.6105 3.80048 7.06715 5.1005 5.76713C6.40053 4.46711 7.94387 3.43588 9.64243 2.73231C11.341 2.02875 13.1615 1.66663 15 1.66663C18.713 1.66663 22.274 3.14162 24.8995 5.76713C27.525 8.39264 29 11.9536 29 15.6666C29 19.3797 27.525 22.9406 24.8995 25.5661C22.274 28.1916 18.713 29.6666 15 29.6666Z" stroke="#1A1A1A" stroke-width="2"/>
</g>
<defs>
<clipPath id="clip0_112_57">
<rect width="30" height="30" fill="white" transform="translate(0 0.666626)"/>
</clipPath>
</defs>
</svg>
