<svg width="40" height="41" viewBox="0 0 40 41" fill="none" xmlns="http://www.w3.org/2000/svg">
<path opacity="0.2" d="M32.125 29.3244L33.3859 34.4166L28.75 31.6885L24.1141 34.4166L25.375 29.3244L21.25 25.9182L26.6641 25.501L28.75 20.6666L30.8359 25.501L36.25 25.9182L32.125 29.3244Z" fill="#1A1A1A"/>
<path d="M18.8375 31.9166H6.25V14.4166H33.75V19.4166C33.75 19.7482 33.8817 20.0661 34.1161 20.3005C34.3505 20.5349 34.6685 20.6666 35 20.6666C35.3315 20.6666 35.6495 20.5349 35.8839 20.3005C36.1183 20.0661 36.25 19.7482 36.25 19.4166V14.4166C36.25 13.7536 35.9866 13.1177 35.5178 12.6489C35.0489 12.18 34.413 11.9166 33.75 11.9166H20.5172L16.25 7.64945C16.0187 7.41629 15.7434 7.23144 15.44 7.10564C15.1366 6.97983 14.8112 6.91559 14.4828 6.91664H6.25C5.58696 6.91664 4.95107 7.18003 4.48223 7.64887C4.01339 8.11771 3.75 8.7536 3.75 9.41664V32.0135C3.75083 32.6506 4.00428 33.2614 4.45477 33.7119C4.90527 34.1624 5.51603 34.4158 6.15313 34.4166H18.8375C19.169 34.4166 19.487 34.2849 19.7214 34.0505C19.9558 33.8161 20.0875 33.4982 20.0875 33.1666C20.0875 32.8351 19.9558 32.5172 19.7214 32.2828C19.487 32.0483 19.169 31.9166 18.8375 31.9166ZM14.4828 9.41664L16.9828 11.9166H6.25V9.41664H14.4828ZM37.4422 25.5416C37.3671 25.3044 37.2228 25.095 37.028 24.9402C36.8331 24.7855 36.5965 24.6924 36.3484 24.6729L31.6859 24.312L29.9 20.1713C29.8035 19.9468 29.6433 19.7554 29.4392 19.621C29.235 19.4865 28.996 19.4149 28.7516 19.4149C28.5071 19.4149 28.2681 19.4865 28.064 19.621C27.8599 19.7554 27.6996 19.9468 27.6031 20.1713L25.8172 24.312L21.1547 24.6729C20.9066 24.6924 20.6699 24.7856 20.4751 24.9405C20.2802 25.0954 20.1361 25.3049 20.061 25.5422C19.986 25.7796 19.9836 26.0339 20.054 26.2726C20.1244 26.5114 20.2645 26.7236 20.4562 26.8823L23.9734 29.7869L22.9031 34.1166C22.8444 34.3554 22.8573 34.6061 22.9403 34.8375C23.0234 35.0689 23.1728 35.2707 23.3699 35.4176C23.567 35.5645 23.8031 35.6501 24.0485 35.6635C24.294 35.677 24.538 35.6177 24.75 35.4932L28.75 33.1385L32.7516 35.4932C32.9635 35.6177 33.2075 35.677 33.453 35.6635C33.6985 35.6501 33.9346 35.5645 34.1317 35.4176C34.3288 35.2707 34.4782 35.0689 34.5612 34.8375C34.6443 34.6061 34.6572 34.3554 34.5984 34.1166L33.5281 29.7869L37.0453 26.8823C37.2375 26.7238 37.378 26.5115 37.4487 26.2726C37.5194 26.0338 37.5172 25.7792 37.4422 25.5416ZM31.3297 28.3541C31.1479 28.504 31.0121 28.7021 30.938 28.9258C30.8639 29.1494 30.8545 29.3895 30.9109 29.6182L31.4578 31.8245L29.3844 30.6041C29.1921 30.4909 28.9731 30.4312 28.75 30.4312C28.5269 30.4312 28.3079 30.4909 28.1156 30.6041L26.0422 31.8245L26.5891 29.6182C26.6455 29.3895 26.6361 29.1494 26.562 28.9258C26.4879 28.7021 26.3521 28.504 26.1703 28.3541L24.4344 26.9198L26.7609 26.7401C26.9879 26.7227 27.2058 26.6436 27.3911 26.5114C27.5764 26.3792 27.7221 26.199 27.8125 25.9901L28.75 23.8151L29.6875 25.9901C29.7779 26.199 29.9236 26.3792 30.1089 26.5114C30.2942 26.6436 30.5121 26.7227 30.7391 26.7401L33.0656 26.9198L31.3297 28.3541Z" fill="#1A1A1A"/>
</svg>
