<svg width="40" height="41" viewBox="0 0 40 41" fill="none" xmlns="http://www.w3.org/2000/svg">
<g clip-path="url(#clip0_120_112)">
<path d="M7.49992 23.1666C7.85148 23.1666 8.177 23.2317 8.47648 23.3619C8.77596 23.4921 9.03638 23.6679 9.25773 23.8893C9.47909 24.1106 9.66138 24.3776 9.80461 24.6901C9.94784 25.0026 10.0129 25.3281 9.99992 25.6666C9.99992 26.0182 9.93481 26.3437 9.80461 26.6432C9.6744 26.9427 9.49862 27.2031 9.27726 27.4244C9.05591 27.6458 8.78898 27.8281 8.47648 27.9713C8.16398 28.1145 7.83846 28.1796 7.49992 28.1666C7.14836 28.1666 6.82284 28.1015 6.52336 27.9713C6.22388 27.8411 5.96346 27.6653 5.74211 27.444C5.52075 27.2226 5.33846 26.9557 5.19523 26.6432C5.052 26.3307 4.9869 26.0052 4.99992 25.6666C4.99992 25.3151 5.06502 24.9895 5.19523 24.6901C5.32544 24.3906 5.50122 24.1302 5.72258 23.9088C5.94393 23.6875 6.21086 23.5052 6.52336 23.3619C6.83586 23.2187 7.16138 23.1536 7.49992 23.1666ZM32.4999 23.1666C32.8515 23.1666 33.177 23.2317 33.4765 23.3619C33.776 23.4921 34.0364 23.6679 34.2577 23.8893C34.4791 24.1106 34.6614 24.3776 34.8046 24.6901C34.9478 25.0026 35.0129 25.3281 34.9999 25.6666C34.9999 26.0182 34.9348 26.3437 34.8046 26.6432C34.6744 26.9427 34.4986 27.2031 34.2773 27.4244C34.0559 27.6458 33.789 27.8281 33.4765 27.9713C33.164 28.1145 32.8385 28.1796 32.4999 28.1666C32.1484 28.1666 31.8228 28.1015 31.5234 27.9713C31.2239 27.8411 30.9635 27.6653 30.7421 27.444C30.5208 27.2226 30.3385 26.9557 30.1952 26.6432C30.052 26.3307 29.9869 26.0052 29.9999 25.6666C29.9999 25.3151 30.065 24.9895 30.1952 24.6901C30.3254 24.3906 30.5012 24.1302 30.7226 23.9088C30.9439 23.6875 31.2109 23.5052 31.5234 23.3619C31.8359 23.2187 32.1614 23.1536 32.4999 23.1666ZM39.2773 18.1666L37.9882 19.4362C38.0142 19.5013 38.0793 19.6966 38.1835 20.0221C38.2877 20.3476 38.4114 20.7317 38.5546 21.1744C38.6978 21.6171 38.8606 22.0924 39.0429 22.6002C39.2252 23.108 39.3814 23.5703 39.5116 23.9869C39.6418 24.4036 39.759 24.7552 39.8632 25.0416C39.9674 25.3281 40.0129 25.4713 39.9999 25.4713V38.1666C39.9999 38.5182 39.9348 38.8437 39.8046 39.1432C39.6744 39.4427 39.4986 39.7031 39.2773 39.9244C39.0559 40.1458 38.789 40.3281 38.4765 40.4713C38.164 40.6145 37.8385 40.6796 37.4999 40.6666H34.9999C34.6484 40.6666 34.3228 40.6015 34.0234 40.4713C33.7239 40.3411 33.4635 40.1653 33.2421 39.944C33.0208 39.7226 32.8385 39.4557 32.6952 39.1432C32.552 38.8307 32.4869 38.5052 32.4999 38.1666H7.49992C7.49992 38.5182 7.43481 38.8437 7.30461 39.1432C7.1744 39.4427 6.99862 39.7031 6.77726 39.9244C6.55591 40.1458 6.28898 40.3281 5.97648 40.4713C5.66398 40.6145 5.33846 40.6796 4.99992 40.6666H2.49992C2.14836 40.6666 1.82284 40.6015 1.52336 40.4713C1.22388 40.3411 0.96346 40.1653 0.742106 39.944C0.520752 39.7226 0.33846 39.4557 0.195231 39.1432C0.0520019 38.8307 -0.0131022 38.5052 -8.138e-05 38.1666V25.4713L0.136637 25.0612L0.4882 24.0065L0.95695 22.6002C1.12622 22.0924 1.28247 21.6171 1.4257 21.1744C1.56893 20.7317 1.69914 20.3476 1.81632 20.0221C1.93351 19.6966 1.99862 19.5013 2.01164 19.4362L0.722575 18.1666H-8.138e-05V15.6666H1.77726L2.89054 16.7994L4.33586 12.444C4.54419 11.8059 4.84367 11.2265 5.23429 10.7057C5.62492 10.1849 6.08716 9.73564 6.62101 9.35803C7.15487 8.98043 7.72127 8.68746 8.32023 8.47913C8.91919 8.27079 9.57023 8.16663 10.2734 8.16663H29.7265C30.4036 8.16663 31.0481 8.27079 31.6601 8.47913C32.2721 8.68746 32.845 8.97392 33.3788 9.3385C33.9127 9.70308 34.3684 10.1523 34.746 10.6862C35.1236 11.22 35.4296 11.8059 35.664 12.444L37.1093 16.7994L38.2226 15.6666H39.9999V18.1666H39.2773ZM10.2734 10.6666C9.45304 10.6666 8.72388 10.901 8.08586 11.3698C7.44784 11.8385 6.99211 12.457 6.71867 13.2252L5.05851 18.1666H34.9413L33.2812 13.2252C33.0208 12.457 32.5715 11.8385 31.9335 11.3698C31.2955 10.901 30.5598 10.6666 29.7265 10.6666H10.2734ZM27.4999 34.7096L25.4687 30.6666H14.5312L12.4999 34.7096V35.6666H27.4999V34.7096ZM37.4999 35.6666V25.8619L37.3827 25.5104C37.3046 25.276 37.207 24.97 37.0898 24.5924C36.9726 24.2148 36.8359 23.8177 36.6796 23.401C36.5234 22.9843 36.3866 22.5742 36.2695 22.1705C36.1523 21.7669 36.0416 21.4349 35.9374 21.1744C35.8333 20.914 35.7747 20.7448 35.7616 20.6666H4.2382C4.21216 20.7317 4.15356 20.901 4.06242 21.1744C3.97127 21.4479 3.8606 21.7734 3.73039 22.151C3.60018 22.5286 3.46346 22.9388 3.32023 23.3815C3.177 23.8242 3.04679 24.2278 2.92961 24.5924C2.81242 24.957 2.70825 25.2565 2.61711 25.4908C2.52596 25.7252 2.4869 25.8489 2.49992 25.8619V35.6666H9.99992V34.1237L12.9687 28.1666H27.0312L29.9999 34.1237V35.6666H37.4999Z" fill="#1A1A1A"/>
</g>
<defs>
<clipPath id="clip0_120_112">
<rect width="40" height="40" fill="white" transform="translate(0 0.666626)"/>
</clipPath>
</defs>
</svg>
