<svg width="33" height="33" viewBox="0 0 33 33" fill="none" xmlns="http://www.w3.org/2000/svg">
<g clip-path="url(#clip0_98_30)">
<path d="M19.9062 23.5921C19.3937 22.5358 18.7312 21.7671 17.5875 22.2358L15.3312 23.0733C13.525 23.9108 12.625 23.0733 11.7187 21.8108L7.65622 12.5733C7.14372 11.5171 7.41247 10.5233 8.55622 10.0546L11.7125 8.79207C12.8562 8.31707 12.675 7.32957 12.1625 6.27332L9.45622 1.23582C8.94372 0.179567 7.89372 -0.0766827 6.74997 0.392067C4.46872 1.33582 2.56872 2.81707 1.34372 5.01082C-0.156283 7.69207 0.593717 11.4233 0.893717 12.9921C1.19372 14.5608 2.24372 17.3108 3.59997 20.1296C4.95622 22.9546 6.14372 25.1733 7.20622 26.4296C8.26872 27.6858 10.8187 31.1233 13.975 31.8921C16.5625 32.5171 19.3562 31.9921 21.6437 31.0483C22.7937 30.5796 22.7937 29.5858 22.2812 28.5233L19.9062 23.5921ZM32.45 12.4671H21.3687L26.2937 7.54207H22.6L16.4437 13.6983L22.6 19.8546H26.2937L21.3687 14.9296H32.45V12.4671Z" fill="white"/>
</g>
<defs>
<clipPath id="clip0_98_30">
<rect width="32" height="32" fill="white" transform="translate(0.5 0.166992)"/>
</clipPath>
</defs>
</svg>
