<svg width="40" height="41" viewBox="0 0 40 41" fill="none" xmlns="http://www.w3.org/2000/svg">
<path d="M14.5834 19.8333C14.2519 19.8333 13.934 19.965 13.6995 20.1994C13.4651 20.4339 13.3334 20.7518 13.3334 21.0833C13.3334 21.4149 13.4651 21.7328 13.6995 21.9672C13.934 22.2016 14.2519 22.3333 14.5834 22.3333H25.4167C25.7483 22.3333 26.0662 22.2016 26.3006 21.9672C26.5351 21.7328 26.6667 21.4149 26.6667 21.0833C26.6667 20.7518 26.5351 20.4339 26.3006 20.1994C26.0662 19.965 25.7483 19.8333 25.4167 19.8333H14.5834ZM14.5834 24.4167C14.2519 24.4167 13.934 24.5484 13.6995 24.7828C13.4651 25.0172 13.3334 25.3351 13.3334 25.6667C13.3334 25.9982 13.4651 26.3161 13.6995 26.5505C13.934 26.785 14.2519 26.9167 14.5834 26.9167H25.4167C25.7483 26.9167 26.0662 26.785 26.3006 26.5505C26.5351 26.3161 26.6667 25.9982 26.6667 25.6667C26.6667 25.3351 26.5351 25.0172 26.3006 24.7828C26.0662 24.5484 25.7483 24.4167 25.4167 24.4167H14.5834ZM14.5834 29C14.2519 29 13.934 29.1317 13.6995 29.3661C13.4651 29.6005 13.3334 29.9185 13.3334 30.25C13.3334 30.5815 13.4651 30.8995 13.6995 31.1339C13.934 31.3683 14.2519 31.5 14.5834 31.5H25.4167C25.7483 31.5 26.0662 31.3683 26.3006 31.1339C26.5351 30.8995 26.6667 30.5815 26.6667 30.25C26.6667 29.9185 26.5351 29.6005 26.3006 29.3661C26.0662 29.1317 25.7483 29 25.4167 29H14.5834ZM22.6417 4.97667L32.3567 14.69C32.9819 15.315 33.3332 16.1627 33.3334 17.0467V34C33.3334 34.8841 32.9822 35.7319 32.3571 36.357C31.732 36.9821 30.8841 37.3333 30.0001 37.3333H10.0001C9.11603 37.3333 8.26818 36.9821 7.64306 36.357C7.01794 35.7319 6.66675 34.8841 6.66675 34V7.33333C6.66675 6.44928 7.01794 5.60143 7.64306 4.97631C8.26818 4.35119 9.11603 4 10.0001 4H20.2867C20.3334 4.00111 20.379 4.005 20.4234 4.01167C20.4567 4.01722 20.4895 4.02111 20.5217 4.02333C20.8801 4.04833 21.2334 4.11667 21.5617 4.25333C21.6567 4.29333 21.7484 4.34667 21.8384 4.39833L21.9217 4.44667L22.0001 4.48667C22.0462 4.50902 22.0912 4.53349 22.1351 4.56C22.2651 4.64833 22.3817 4.75333 22.5001 4.86L22.5601 4.91L22.6417 4.97667ZM30.0001 34.8333C30.2211 34.8333 30.4331 34.7455 30.5893 34.5893C30.7456 34.433 30.8334 34.221 30.8334 34V17.3333H23.3334C22.4494 17.3333 21.6015 16.9821 20.9764 16.357C20.3513 15.7319 20.0001 14.8841 20.0001 14V6.5H10.0001C9.77907 6.5 9.56711 6.5878 9.41083 6.74408C9.25455 6.90036 9.16675 7.11232 9.16675 7.33333V34C9.16675 34.221 9.25455 34.433 9.41083 34.5893C9.56711 34.7455 9.77907 34.8333 10.0001 34.8333H30.0001ZM28.9634 14.8333L22.5001 8.36833V14C22.5001 14.221 22.5879 14.433 22.7442 14.5893C22.9004 14.7455 23.1124 14.8333 23.3334 14.8333H28.9634Z" fill="#1A1A1A"/>
</svg>
