<svg width="30" height="31" viewBox="0 0 30 31" fill="none" xmlns="http://www.w3.org/2000/svg">
<g clip-path="url(#clip0_112_66)">
<path d="M5.625 17.5416C5.88867 17.5416 6.13281 17.5905 6.35742 17.6881C6.58203 17.7858 6.77734 17.9176 6.94336 18.0836C7.10938 18.2496 7.24609 18.4498 7.35352 18.6842C7.46094 18.9186 7.50977 19.1627 7.5 19.4166C7.5 19.6803 7.45117 19.9244 7.35352 20.149C7.25586 20.3737 7.12402 20.569 6.95801 20.735C6.79199 20.901 6.5918 21.0377 6.35742 21.1451C6.12305 21.2526 5.87891 21.3014 5.625 21.2916C5.36133 21.2916 5.11719 21.2428 4.89258 21.1451C4.66797 21.0475 4.47266 20.9156 4.30664 20.7496C4.14062 20.5836 4.00391 20.3834 3.89648 20.149C3.78906 19.9147 3.74023 19.6705 3.75 19.4166C3.75 19.153 3.79883 18.9088 3.89648 18.6842C3.99414 18.4596 4.12598 18.2643 4.29199 18.0983C4.45801 17.9323 4.6582 17.7955 4.89258 17.6881C5.12695 17.5807 5.37109 17.5319 5.625 17.5416ZM24.375 17.5416C24.6387 17.5416 24.8828 17.5905 25.1074 17.6881C25.332 17.7858 25.5273 17.9176 25.6934 18.0836C25.8594 18.2496 25.9961 18.4498 26.1035 18.6842C26.2109 18.9186 26.2598 19.1627 26.25 19.4166C26.25 19.6803 26.2012 19.9244 26.1035 20.149C26.0059 20.3737 25.874 20.569 25.708 20.735C25.542 20.901 25.3418 21.0377 25.1074 21.1451C24.873 21.2526 24.6289 21.3014 24.375 21.2916C24.1113 21.2916 23.8672 21.2428 23.6426 21.1451C23.418 21.0475 23.2227 20.9156 23.0566 20.7496C22.8906 20.5836 22.7539 20.3834 22.6465 20.149C22.5391 19.9147 22.4902 19.6705 22.5 19.4166C22.5 19.153 22.5488 18.9088 22.6465 18.6842C22.7441 18.4596 22.876 18.2643 23.042 18.0983C23.208 17.9323 23.4082 17.7955 23.6426 17.6881C23.877 17.5807 24.1211 17.5319 24.375 17.5416ZM29.458 13.7916L28.4912 14.7438C28.5107 14.7926 28.5596 14.9391 28.6377 15.1832C28.7158 15.4274 28.8086 15.7155 28.916 16.0475C29.0234 16.3795 29.1455 16.736 29.2822 17.1168C29.4189 17.4977 29.5361 17.8444 29.6338 18.1569C29.7314 18.4694 29.8193 18.733 29.8975 18.9479C29.9756 19.1627 30.0098 19.2701 30 19.2701V28.7916C30 29.0553 29.9512 29.2994 29.8535 29.524C29.7559 29.7487 29.624 29.944 29.458 30.11C29.292 30.276 29.0918 30.4127 28.8574 30.5201C28.623 30.6276 28.3789 30.6764 28.125 30.6666H26.25C25.9863 30.6666 25.7422 30.6178 25.5176 30.5201C25.293 30.4225 25.0977 30.2906 24.9316 30.1246C24.7656 29.9586 24.6289 29.7584 24.5215 29.524C24.4141 29.2897 24.3652 29.0455 24.375 28.7916H5.625C5.625 29.0553 5.57617 29.2994 5.47852 29.524C5.38086 29.7487 5.24902 29.944 5.08301 30.11C4.91699 30.276 4.7168 30.4127 4.48242 30.5201C4.24805 30.6276 4.00391 30.6764 3.75 30.6666H1.875C1.61133 30.6666 1.36719 30.6178 1.14258 30.5201C0.917969 30.4225 0.722656 30.2906 0.556641 30.1246C0.390625 29.9586 0.253906 29.7584 0.146484 29.524C0.0390625 29.2897 -0.00976562 29.0455 1.16415e-10 28.7916V19.2701L0.102539 18.9625L0.366211 18.1715L0.717773 17.1168C0.844727 16.736 0.961914 16.3795 1.06934 16.0475C1.17676 15.7155 1.27441 15.4274 1.3623 15.1832C1.4502 14.9391 1.49902 14.7926 1.50879 14.7438L0.541992 13.7916H1.16415e-10V11.9166H1.33301L2.16797 12.7662L3.25195 9.49963C3.4082 9.02112 3.63281 8.58655 3.92578 8.19592C4.21875 7.8053 4.56543 7.46838 4.96582 7.18518C5.36621 6.90198 5.79102 6.68225 6.24023 6.526C6.68945 6.36975 7.17773 6.29163 7.70508 6.29163H22.2949C22.8027 6.29163 23.2861 6.36975 23.7451 6.526C24.2041 6.68225 24.6338 6.89709 25.0342 7.17053C25.4346 7.44397 25.7764 7.78088 26.0596 8.18127C26.3428 8.58167 26.5723 9.02112 26.748 9.49963L27.832 12.7662L28.667 11.9166H30V13.7916H29.458ZM7.70508 8.16663C7.08984 8.16663 6.54297 8.34241 6.06445 8.69397C5.58594 9.04553 5.24414 9.5094 5.03906 10.0856L3.79395 13.7916H26.2061L24.9609 10.0856C24.7656 9.5094 24.4287 9.04553 23.9502 8.69397C23.4717 8.34241 22.9199 8.16663 22.2949 8.16663H7.70508ZM20.625 26.1989L19.1016 23.1666H10.8984L9.375 26.1989V26.9166H20.625V26.1989ZM28.125 26.9166V19.5631L28.0371 19.2994C27.9785 19.1237 27.9053 18.8942 27.8174 18.611C27.7295 18.3278 27.627 18.0299 27.5098 17.7174C27.3926 17.4049 27.29 17.0973 27.2021 16.7946C27.1143 16.4918 27.0312 16.2428 26.9531 16.0475C26.875 15.8522 26.8311 15.7252 26.8213 15.6666H3.17871C3.15918 15.7155 3.11523 15.8424 3.04688 16.0475C2.97852 16.2526 2.89551 16.4967 2.79785 16.7799C2.7002 17.0631 2.59766 17.3707 2.49023 17.7028C2.38281 18.0348 2.28516 18.3375 2.19727 18.611C2.10938 18.8844 2.03125 19.109 1.96289 19.2848C1.89453 19.4606 1.86523 19.5533 1.875 19.5631V26.9166H7.5V25.7594L9.72656 21.2916H20.2734L22.5 25.7594V26.9166H28.125Z" fill="#1A1A1A"/>
</g>
<defs>
<clipPath id="clip0_112_66">
<rect width="30" height="30" fill="white" transform="translate(0 0.666626)"/>
</clipPath>
</defs>
</svg>
