<svg width="34" height="34" viewBox="0 0 34 34" fill="none" xmlns="http://www.w3.org/2000/svg">
<path d="M4.85714 0C2.17813 0 0 2.17813 0 4.85714V29.1429C0 31.8219 2.17813 34 4.85714 34H29.1429C31.8219 34 34 31.8219 34 29.1429V4.85714C34 2.17813 31.8219 0 29.1429 0H4.85714ZM27.4049 6.375L19.5272 15.3759L28.7938 27.625H21.5384L15.8616 20.1951L9.35759 27.625H5.75268L14.1768 17.9942L5.28973 6.375H12.7272L17.8652 13.1674L23.8 6.375H27.4049ZM24.5362 25.4696L11.642 8.41652H9.4942L22.5326 25.4696H24.5286H24.5362Z" fill="#999999"/>
</svg>
