<svg width="13" height="13" viewBox="0 0 13 13" fill="none" xmlns="http://www.w3.org/2000/svg">
<g clip-path="url(#clip0_426_659)">
<path d="M8.04404 9.16468C7.85185 8.76859 7.60342 8.48031 7.17451 8.65609L6.32841 8.97015C5.65107 9.28421 5.31357 8.97015 4.97373 8.49671L3.45029 5.03265C3.2581 4.63656 3.35888 4.2639 3.78779 4.08812L4.97138 3.61468C5.40029 3.43656 5.33232 3.06625 5.14013 2.67015L4.12529 0.781089C3.9331 0.384995 3.53935 0.288901 3.11045 0.464683C2.25498 0.818589 1.54248 1.37406 1.0831 2.19671C0.520602 3.20218 0.801852 4.6014 0.914352 5.18968C1.02685 5.77796 1.4206 6.80921 1.9292 7.86624C2.43779 8.92562 2.8831 9.75765 3.28154 10.2287C3.67998 10.6998 4.63623 11.9889 5.81982 12.2772C6.79013 12.5116 7.83779 12.3147 8.6956 11.9608C9.12685 11.785 9.12685 11.4123 8.93466 11.0139L8.04404 9.16468ZM12.7479 4.99281H8.59248L10.4394 3.14593H9.0542L6.7456 5.45453L9.0542 7.76312H10.4394L8.59248 5.91625H12.7479V4.99281Z" fill="white"/>
</g>
<defs>
<clipPath id="clip0_426_659">
<rect width="12" height="12" fill="white" transform="translate(0.766724 0.380249)"/>
</clipPath>
</defs>
</svg>
