<svg width="13" height="13" viewBox="0 0 13 13" fill="none" xmlns="http://www.w3.org/2000/svg">
<g clip-path="url(#clip0_426_654)">
<path d="M4.25681 2.38025C3.15681 2.38025 2.25681 3.28025 2.25681 4.38025C2.25681 5.48025 3.15681 6.38025 4.25681 6.38025C5.35681 6.38025 6.25681 5.48025 6.25681 4.38025C6.25681 3.28025 5.35681 2.38025 4.25681 2.38025ZM4.25681 5.38025C3.70681 5.38025 3.25681 4.93025 3.25681 4.38025C3.25681 3.83025 3.70681 3.38025 4.25681 3.38025C4.80681 3.38025 5.25681 3.83025 5.25681 4.38025C5.25681 4.93025 4.80681 5.38025 4.25681 5.38025ZM4.25681 7.38025C2.30681 7.38025 0.756805 8.28025 0.756805 9.38025V10.3802H6.25681V9.38025H1.75681C1.75681 9.08025 2.65681 8.38025 4.25681 8.38025C5.15681 8.38025 5.85681 8.63025 6.25681 8.88025V7.78025C5.70681 7.53025 5.00681 7.38025 4.25681 7.38025ZM11.7568 2.38025H8.25681C7.70681 2.38025 7.25681 2.83025 7.25681 3.38025V9.38025C7.25681 9.93025 7.70681 10.3802 8.25681 10.3802H11.7568C12.3068 10.3802 12.7568 9.93025 12.7568 9.38025V3.38025C12.7568 2.83025 12.3068 2.38025 11.7568 2.38025ZM8.75681 9.38025H8.25681V3.38025H8.75681V9.38025ZM11.7568 9.38025H9.75681V3.38025H11.7568V9.38025Z" fill="white"/>
</g>
<defs>
<clipPath id="clip0_426_654">
<rect width="12" height="12" fill="white" transform="translate(0.756821 0.380249)"/>
</clipPath>
</defs>
</svg>
