<svg width="13" height="13" viewBox="0 0 13 13" fill="none" xmlns="http://www.w3.org/2000/svg">
<g clip-path="url(#clip0_426_647)">
<path d="M3.24699 1.38025H8.74699C9.14482 1.38025 9.52635 1.53828 9.80765 1.81959C10.089 2.10089 10.247 2.48242 10.247 2.88025V9.88025C10.247 10.0129 10.1943 10.14 10.1005 10.2338C10.0068 10.3276 9.8796 10.3802 9.74699 10.3802H8.24699" stroke="white" stroke-linecap="round" stroke-linejoin="round"/>
<path d="M6.74699 6.38025V7.38025M3.24699 1.38025L7.04099 2.13925C7.38099 2.20721 7.68695 2.39085 7.90682 2.65895C8.12669 2.92704 8.2469 3.26302 8.24699 3.60975V10.7702C8.24695 10.8442 8.2305 10.9172 8.19884 10.984C8.16718 11.0509 8.12109 11.1098 8.06389 11.1567C8.0067 11.2036 7.93982 11.2372 7.86807 11.2551C7.79633 11.273 7.7215 11.2747 7.64899 11.2602L4.05099 10.5412C3.82422 10.4959 3.62016 10.3734 3.47356 10.1945C3.32697 10.0157 3.2469 9.79151 3.24699 9.56025V1.38025Z" stroke="white" stroke-linecap="round" stroke-linejoin="round"/>
</g>
<defs>
<clipPath id="clip0_426_647">
<rect width="12" height="12" fill="white" transform="translate(0.746948 0.380249)"/>
</clipPath>
</defs>
</svg>
